<?xml version="1.0" encoding="UTF-8"?>
<svg version="1.1" xmlns="http://www.w3.org/2000/svg" width="512" height="512">
<path d="M0 0 C3.4375 0.75 3.4375 0.75 5.4375 3.75 C5.70674594 5.92894909 5.88486313 8.12000006 6 10.3125 C6.10556962 14.69020666 6.10556962 14.69020666 7.4375 18.75 C7.7675 18.42 8.0975 18.09 8.4375 17.75 C14.2785596 17.37913907 14.2785596 17.37913907 16.4375 17.75 C18.64664 21.06371 18.66231553 22.0946021 18.5625 25.9375 C18.54445313 26.83855469 18.52640625 27.73960938 18.5078125 28.66796875 C18.47300781 29.69857422 18.47300781 29.69857422 18.4375 30.75 C19.16066406 30.58886719 19.88382812 30.42773438 20.62890625 30.26171875 C38.1519154 27.06907035 56.93789018 32.51561454 71.52368164 42.17456055 C86.79784528 52.7746869 95.40437556 68.1623134 99.78291512 85.99784279 C101.12629637 93.69826148 100.86222066 101.49906444 100.84155273 109.29370117 C100.84726456 111.24816272 100.85423195 113.20262094 100.86235046 115.15707397 C100.88021116 120.43631065 100.87912637 125.71538045 100.87340808 130.9946382 C100.87030468 135.41753422 100.87642173 139.84039871 100.88244683 144.26329023 C100.89646839 154.70818725 100.89495166 165.15300245 100.88354492 175.59790039 C100.87207744 186.33494667 100.88612185 197.07174275 100.9129414 207.80875605 C100.93517581 217.06016034 100.94171806 226.31148654 100.93586498 235.56291562 C100.9325113 241.0736686 100.93480351 246.58426144 100.95211601 252.09499168 C100.96770598 257.28345472 100.96349735 262.47155068 100.94481087 267.65999985 C100.9411575 269.55084862 100.94413694 271.44172533 100.95469666 273.33254814 C101.12380802 306.1512019 88.04853533 335.1905152 65.4375 358.75 C64.60734375 359.64332031 63.7771875 360.53664063 62.921875 361.45703125 C53.7803317 371.01288426 43.59488465 378.25324495 32 384.5625 C31.3694873 384.91135254 30.73897461 385.26020508 30.08935547 385.61962891 C15.30681413 393.34778688 -1.72995024 396.37812241 -17.8125 400.1875 C-20.35925444 400.79562527 -22.90588301 401.40427787 -25.45239258 402.01342773 C-30.77335241 403.28524978 -36.09548036 404.5520767 -41.41845703 405.81542969 C-48.17582785 407.41924824 -54.93119017 409.03136204 -61.6859436 410.64616394 C-66.94310227 411.90287284 -72.20102855 413.15635351 -77.45910645 414.40921021 C-79.94659818 415.0019269 -82.43398777 415.59507251 -84.92126465 416.18869019 C-97.00163235 419.06920798 -109.08940229 421.91336365 -121.21508789 424.59765625 C-122.13282738 424.8041127 -123.05056686 425.01056915 -123.99611664 425.22328186 C-132.33935619 427.04436372 -140.4682319 427.7986844 -149 427.75 C-149.74017931 427.74699072 -150.48035862 427.74398144 -151.24296761 427.74088097 C-165.24233923 427.57246506 -178.15752746 425.24633833 -191.71875 421.92578125 C-193.80525729 421.42932375 -195.89217765 420.93459959 -197.97947693 420.44148254 C-202.32652177 419.41170418 -206.67096592 418.3718397 -211.01364136 417.3237915 C-217.40321287 415.78388433 -223.80096486 414.28057269 -230.20141602 412.78662109 C-239.5635435 410.59930292 -248.92024227 408.39020521 -258.27275181 406.16212273 C-263.53091836 404.90960483 -268.79011154 403.66183966 -274.05200195 402.42504883 C-279.3034417 401.19064594 -284.55206556 399.94487993 -289.79891777 398.69112587 C-291.75330123 398.22602687 -293.70859258 397.76472253 -295.66487312 397.30766869 C-310.02210365 393.94888284 -323.83505064 389.96140412 -336.6875 382.5 C-337.68040039 381.9277771 -337.68040039 381.9277771 -338.69335938 381.34399414 C-356.86073731 370.62637553 -372.21845365 355.49217268 -383.5625 337.75 C-384.20574219 336.75613281 -384.84898437 335.76226562 -385.51171875 334.73828125 C-394.97749234 319.35896581 -401.71410239 300.63089905 -401.70967102 282.49867249 C-401.71518605 281.27566686 -401.71518605 281.27566686 -401.7208125 280.02795404 C-401.7317995 277.30386718 -401.73568473 274.57981854 -401.73950195 271.85571289 C-401.74577051 269.89889405 -401.75241766 267.94207638 -401.75941467 265.98526001 C-401.78041591 259.56440046 -401.79081541 253.14354078 -401.80078125 246.72265625 C-401.80483069 244.50718104 -401.80894766 242.29170596 -401.81313133 240.076231 C-401.83217667 229.66286959 -401.84640744 219.24951522 -401.8547433 208.83613974 C-401.86450469 196.84188899 -401.8907984 184.84782333 -401.93124419 172.85363775 C-401.96147862 163.56673344 -401.97621923 154.27988195 -401.97952431 144.9929294 C-401.98186698 139.45418254 -401.99072475 133.91563354 -402.01598549 128.37693977 C-402.0393988 123.1590458 -402.04344646 117.94147812 -402.03322411 112.72354507 C-402.0327318 110.8189491 -402.03896107 108.91433633 -402.05278015 107.00979042 C-402.15090828 92.67186988 -400.71529223 79.52947272 -394 66.5625 C-393.66266846 65.90378906 -393.32533691 65.24507813 -392.9777832 64.56640625 C-384.34256896 48.55645144 -369.74761107 38.33760696 -352.67578125 32.81640625 C-347.00135001 31.16235307 -341.46250069 30.08453612 -335.5625 29.75 C-334.79164063 29.69714844 -334.02078125 29.64429687 -333.2265625 29.58984375 C-314.8496563 28.93958399 -296.06387742 34.75277849 -278.35760736 38.94739676 C-276.29860339 39.43482672 -274.23916954 39.92039842 -272.17959213 40.40539932 C-264.97483578 42.10230274 -257.77201988 43.80719336 -250.57080078 45.51904297 C-243.88317773 47.10854652 -237.19124859 48.67892119 -230.4971782 50.24102581 C-224.71451669 51.59141625 -218.93523749 52.95566433 -213.15835845 54.33057988 C-209.72254324 55.14802872 -206.28562226 55.95975426 -202.84509659 56.75716782 C-199.02353033 57.64341694 -195.20916582 58.55838946 -191.39501953 59.47607422 C-190.26465271 59.73390686 -189.13428589 59.9917395 -187.96966553 60.25738525 C-182.03105431 61.7138347 -178.34958224 62.85284534 -174.5625 67.75 C-174.06927246 68.28810303 -173.57604492 68.82620605 -173.06787109 69.38061523 C-171.68786016 70.98023552 -170.30894601 72.58052108 -168.9375 74.1875 C-168.42477539 74.78643066 -167.91205078 75.38536133 -167.38378906 76.00244141 C-161.91778551 82.43411675 -156.71978858 89.06988999 -151.5625 95.75 C-147.34236833 94.21009052 -145.22499918 91.09198211 -142.625 87.625 C-142.14901367 87.01479004 -141.67302734 86.40458008 -141.18261719 85.77587891 C-138.53017435 82.37480427 -135.97102568 78.92751797 -133.48046875 75.40625 C-132.42495349 73.97881581 -131.36897382 72.55172489 -130.3125 71.125 C-129.86140869 70.45065918 -129.41031738 69.77631836 -128.94555664 69.08154297 C-123.8217405 62.30286691 -116.42748253 61.39171556 -108.5625 59.75 C-106.90465554 59.38282444 -105.24745124 59.01274928 -103.59082031 58.64013672 C-102.72708801 58.44652557 -101.86335571 58.25291443 -100.97344971 58.05343628 C-100.09018005 57.85533356 -99.2069104 57.65723083 -98.296875 57.453125 C-96.48183782 57.04657582 -94.66673286 56.64032914 -92.8515625 56.234375 C-91.94051758 56.03005859 -91.02947266 55.82574219 -90.09082031 55.61523438 C-88.23327307 55.20389702 -86.37385042 54.80094212 -84.51269531 54.40625 C-73.21437529 51.99847623 -64.35474117 49.68010445 -55.5625 41.75 C-54.19450957 40.65333609 -52.82237831 39.5618087 -51.4453125 38.4765625 C-50.1906672 37.44518633 -48.93806639 36.41131817 -47.6875 35.375 C-42.76707668 31.33550536 -37.8150461 27.35679294 -32.75 23.5 C-28.76043159 20.454941 -24.82047868 17.3674783 -20.9375 14.1875 C-20.05191406 13.465625 -19.16632813 12.74375 -18.25390625 12 C-16.37738002 10.43123497 -14.53298295 8.82357587 -12.71484375 7.1875 C-4.75504026 0.18024521 -4.75504026 0.18024521 0 0 Z " fill="#074956" transform="translate(405.5625,42.25)"/>
<path d="M0 0 C18.3769062 -0.65025976 37.16268508 5.16293474 54.86895514 9.35755301 C56.92795911 9.84498297 58.98739296 10.33055467 61.04697037 10.81555557 C68.25172672 12.51245899 75.45454262 14.21734961 82.65576172 15.92919922 C89.34338477 17.51870277 96.03531391 19.08907744 102.7293843 20.65118206 C108.51204581 22.0015725 114.29132501 23.36582058 120.06820405 24.74073613 C123.50401926 25.55818497 126.94094024 26.36991051 130.38146591 27.16732407 C134.20303217 28.05357319 138.01739668 28.96854571 141.83154297 29.88623047 C142.96190979 30.14406311 144.09227661 30.40189575 145.25689697 30.6675415 C151.19550819 32.12399095 154.87698026 33.26300159 158.6640625 38.16015625 C159.15729004 38.69825928 159.65051758 39.2363623 160.15869141 39.79077148 C161.53870234 41.39039177 162.91761649 42.99067733 164.2890625 44.59765625 C165.05814941 45.49605225 165.05814941 45.49605225 165.84277344 46.41259766 C171.30877699 52.844273 176.50677392 59.48004624 181.6640625 66.16015625 C185.88419417 64.62024677 188.00156332 61.50213836 190.6015625 58.03515625 C191.07754883 57.42494629 191.55353516 56.81473633 192.04394531 56.18603516 C194.69638815 52.78496052 197.25553682 49.33767422 199.74609375 45.81640625 C200.80160901 44.38897206 201.85758868 42.96188114 202.9140625 41.53515625 C203.36515381 40.86081543 203.81624512 40.18647461 204.28100586 39.49169922 C208.94973971 33.31508524 215.12908138 32.20447098 222.35626221 30.66491699 C225.74986687 29.92266975 229.11462254 29.07123131 232.48519897 28.23150635 C236.19545847 27.31145681 239.91255981 26.42099137 243.63012695 25.53100586 C246.51865729 24.83755047 249.40477112 24.13454121 252.29101562 23.43164062 C254.13006713 22.99029663 255.96925478 22.54951945 257.80859375 22.109375 C258.66991409 21.89802414 259.53123444 21.68667328 260.4186554 21.46891785 C266.43566152 20.04595576 266.43566152 20.04595576 268.6640625 21.16015625 C265.06507939 23.93785008 261.46179385 26.70987751 257.85546875 29.47802734 C256.32903715 30.64972005 254.80302742 31.82196247 253.27734375 32.99462891 C242.64643477 41.15941424 231.95841093 49.21969313 221.05078125 57.01171875 C218.0940796 59.12411855 215.16226499 61.2656041 212.24609375 63.43359375 C204.34753422 69.2806581 196.33084315 74.76750038 187.9140625 79.84765625 C187.0802002 80.35304932 186.24633789 80.85844238 185.38720703 81.37915039 C177.26193969 86.18887796 170.30974893 87.59446873 160.94140625 88.23046875 C159.76327866 88.31249542 158.58515106 88.39452209 157.37132263 88.47903442 C142.00249665 89.47921013 126.62597629 89.92335205 111.2265625 90.03515625 C110.45892956 90.04102879 109.69129662 90.04690132 108.90040207 90.05295181 C85.52361488 90.1981955 65.02626521 88.70371407 43.49365234 78.85888672 C37.3395223 76.06921408 30.95083843 73.883547 24.58224487 71.64077759 C22.61983712 70.93904044 20.67202189 70.20644055 18.72485352 69.46362305 C10.92312602 66.57980738 4.08324474 64.63911638 -4.10546875 66.9375 C-4.77964844 67.32035156 -5.45382813 67.70320313 -6.1484375 68.09765625 C-6.83550781 68.45730469 -7.52257812 68.81695312 -8.23046875 69.1875 C-13.56661436 74.18704274 -15.57128493 79.3717972 -15.90886223 86.60528469 C-16.00965106 91.11559321 -15.99595045 95.62174762 -15.96704102 100.1328125 C-15.97218364 102.16877871 -15.9794675 104.20474047 -15.98872375 106.24069214 C-16.00720204 111.75315284 -15.99432148 117.26512844 -15.97463346 122.77756882 C-15.95821628 128.55492441 -15.96706413 134.33225002 -15.97215271 140.10961914 C-15.97667022 149.81046269 -15.96082492 159.51111321 -15.93286133 169.21191406 C-15.90081112 180.41656497 -15.90082639 191.62086778 -15.9180761 202.8255434 C-15.9339571 213.61802331 -15.92719745 224.41037598 -15.91013908 235.20285034 C-15.90327864 239.7895752 -15.90429074 244.37619776 -15.91168404 248.96292114 C-15.91936279 254.36721049 -15.90716853 259.77110518 -15.87983513 265.1753273 C-15.87296694 267.15498814 -15.87283646 269.13468594 -15.88005066 271.11434555 C-15.88878489 273.82398065 -15.87272267 276.53240877 -15.8506012 279.24194336 C-15.86296235 280.40738725 -15.86296235 280.40738725 -15.87557322 281.59637547 C-15.75539351 289.61273879 -12.57459622 296.74175844 -7.12480927 302.62138748 C0.32268662 309.02764549 10.92195525 311.47306205 20.08789062 314.48535156 C21.62326345 314.99612474 23.15841371 315.50756738 24.69335938 316.0196228 C28.83107371 317.39792165 32.97177631 318.76702887 37.11307716 320.13450718 C41.45415701 321.56981455 45.79229535 323.01395749 50.1307373 324.45721436 C58.33549086 327.18525113 66.54267824 329.90588416 74.75085402 332.62360454 C86.81864758 336.61958701 98.88290816 340.6262114 110.94695282 344.63349533 C112.72566201 345.2243125 114.50437142 345.815129 116.28308105 346.40594482 C117.1511021 346.69428593 118.01912314 346.98262704 118.91344786 347.27970576 C124.07874615 348.99523897 129.24481687 350.70842096 134.41157627 352.41954851 C137.61537322 353.48076409 140.81879666 354.54310402 144.02215576 355.60564041 C145.5111476 356.09920902 147.00031594 356.59224549 148.4896698 357.08472061 C150.51639337 357.75493146 152.54250563 358.42695908 154.56848145 359.09942627 C155.70404732 359.47547626 156.83961319 359.85152626 158.00959015 360.23897171 C160.6640625 361.16015625 160.6640625 361.16015625 162.6640625 362.16015625 C167.78065209 362.65469651 172.24208736 362.57386141 176.9765625 360.47265625 C178.1934375 360.03953125 179.4103125 359.60640625 180.6640625 359.16015625 C182.35442808 360.11955293 184.01800424 361.12658478 185.6640625 362.16015625 C195.03706958 363.90672012 203.74352859 360.17523009 212.39289284 357.05368614 C215.06096209 356.09096194 217.73556163 355.14887188 220.4127655 354.21186829 C223.2546668 353.21713873 226.09612912 352.22133445 228.93556309 351.21958065 C239.37327479 347.53931934 249.86937329 344.03932096 260.37109375 340.546875 C262.28716074 339.90815374 264.20316602 339.26924731 266.11911011 338.63015747 C269.96944705 337.34608218 273.8201348 336.06306785 277.67114258 334.78100586 C282.54410772 333.15860079 287.41615361 331.53345432 292.28795052 329.90754509 C296.14341799 328.62117074 299.99937545 327.33627009 303.85546494 326.05176163 C305.73056886 325.42694113 307.60552234 324.80166894 309.48031998 324.17593002 C318.40018221 321.19962432 327.3214976 318.23972384 336.30224609 315.45166016 C336.95629142 315.24729875 337.61033674 315.04293734 338.28420162 314.83238316 C341.21158967 313.91808649 344.1412675 313.01566343 347.08027649 312.139328 C356.50252305 309.21912161 366.3971183 304.98762037 371.6640625 296.16015625 C374.00702159 290.6562799 375.04528352 286.42358766 375.09643555 280.3671875 C375.1066272 279.6345015 375.11681885 278.90181549 375.12731934 278.14692688 C375.15721059 275.75542315 375.16667811 273.36432146 375.17578125 270.97265625 C375.19264573 269.30255833 375.21079834 267.63247296 375.23017883 265.96240234 C375.27749308 261.58953781 375.30742215 257.2167242 375.33361816 252.84368896 C375.36351791 248.37225288 375.41001569 243.90099194 375.45507812 239.4296875 C375.54089967 230.67326352 375.60833843 221.91682326 375.6640625 213.16015625 C376.41502197 212.91894043 377.16598145 212.67772461 377.93969727 212.42919922 C381.37451452 211.31507557 384.80033378 210.17540517 388.2265625 209.03515625 C389.40798828 208.65617188 390.58941406 208.2771875 391.80664062 207.88671875 C400.15964523 205.07898611 406.38346145 202.1644312 411.0703125 194.5078125 C413.3655688 189.34961631 413.25018884 184.15639378 413.1640625 178.59765625 C413.17953125 177.59541016 413.195 176.59316406 413.2109375 175.56054688 C413.1775793 169.22665834 412.43916984 165.29734445 408.6640625 160.16015625 C406.16854113 158.26073501 406.16854113 158.26073501 403.6640625 157.16015625 C403.0040625 156.83015625 402.3440625 156.50015625 401.6640625 156.16015625 C395.50450103 155.64752695 390.52964425 157.20078872 384.7265625 159.16015625 C383.85193359 159.44632813 382.97730469 159.7325 382.07617188 160.02734375 C379.9356029 160.72916964 377.798601 161.44024014 375.6640625 162.16015625 C375.66041687 161.1506189 375.65677124 160.14108154 375.65301514 159.10095215 C375.61600553 149.5671916 375.55816775 140.03375228 375.48015976 130.50023651 C375.44072229 125.5994283 375.40851551 120.69879876 375.39306641 115.79785156 C375.37787526 111.06436378 375.34338611 106.33136733 375.29575348 101.59809875 C375.28096501 99.79613018 375.27302294 97.99409144 375.27217865 96.19206238 C375.26979955 93.65941549 375.24264576 91.12811615 375.20996094 88.59570312 C375.2149913 87.85770477 375.22002167 87.11970642 375.22520447 86.35934448 C375.09426216 79.76218397 372.9837141 74.42032961 368.2265625 69.78515625 C362.4083711 66.09557146 359.05236387 65.98107862 351.6640625 65.16015625 C351.6640625 44.04015625 351.6640625 22.92015625 351.6640625 1.16015625 C370.04698849 -2.51642895 389.28312906 2.3421441 404.75024414 12.5847168 C420.02440778 23.18484315 428.63093806 38.57246965 433.00947762 56.40799904 C434.35285887 64.10841773 434.08878316 71.90922069 434.06811523 79.70385742 C434.07382706 81.65831897 434.08079445 83.61277719 434.08891296 85.56723022 C434.10677366 90.8464669 434.10568887 96.1255367 434.09997058 101.40479445 C434.09686718 105.82769047 434.10298423 110.25055496 434.10900933 114.67344648 C434.12303089 125.1183435 434.12151416 135.5631587 434.11010742 146.00805664 C434.09863994 156.74510292 434.11268435 167.481899 434.1395039 178.2189123 C434.16173831 187.47031659 434.16828056 196.72164279 434.16242748 205.97307187 C434.1590738 211.48382485 434.16136601 216.99441769 434.17867851 222.50514793 C434.19426848 227.69361097 434.19005985 232.88170693 434.17137337 238.0701561 C434.16772 239.96100487 434.17069944 241.85188158 434.18125916 243.74270439 C434.35037052 276.56135815 421.27509783 305.60067145 398.6640625 329.16015625 C397.83390625 330.05347656 397.00375 330.94679688 396.1484375 331.8671875 C387.0068942 341.42304051 376.82144715 348.6634012 365.2265625 354.97265625 C364.5960498 355.32150879 363.96553711 355.67036133 363.31591797 356.02978516 C348.53337663 363.75794313 331.49661226 366.78827866 315.4140625 370.59765625 C312.86730806 371.20578152 310.32067949 371.81443412 307.77416992 372.42358398 C302.45321009 373.69540603 297.13108214 374.96223295 291.80810547 376.22558594 C285.05073465 377.82940449 278.29537233 379.44151829 271.5406189 381.05632019 C266.28346023 382.31302909 261.02553395 383.56650976 255.76745605 384.81936646 C253.27996432 385.41208315 250.79257473 386.00522876 248.30529785 386.59884644 C236.22493015 389.47936423 224.13716021 392.3235199 212.01147461 395.0078125 C211.09373512 395.21426895 210.17599564 395.4207254 209.23044586 395.63343811 C200.88720631 397.45451997 192.7583306 398.20884065 184.2265625 398.16015625 C183.48638319 398.15714697 182.74620388 398.15413769 181.98359489 398.15103722 C167.98422327 397.98262131 155.06903504 395.65649458 141.5078125 392.3359375 C139.42130521 391.83948 137.33438485 391.34475584 135.24708557 390.85163879 C130.90004073 389.82186043 126.55559658 388.78199595 122.21292114 387.73394775 C115.82334963 386.19404058 109.42559764 384.69072894 103.02514648 383.19677734 C93.663019 381.00945917 84.30632023 378.80036146 74.95381069 376.57227898 C69.69564414 375.31976108 64.43645096 374.07199591 59.17456055 372.83520508 C53.9231208 371.60080219 48.67449694 370.35503618 43.42764473 369.10128212 C41.47326127 368.63618312 39.51796992 368.17487878 37.56168938 367.71782494 C23.20445885 364.35903909 9.39151186 360.37156037 -3.4609375 352.91015625 C-4.45383789 352.33793335 -4.45383789 352.33793335 -5.46679688 351.75415039 C-23.63417481 341.03653178 -38.99189115 325.90232893 -50.3359375 308.16015625 C-50.97917969 307.16628906 -51.62242188 306.17242187 -52.28515625 305.1484375 C-61.75092984 289.76912206 -68.48753989 271.0410553 -68.48310852 252.90882874 C-68.48862355 251.68582311 -68.48862355 251.68582311 -68.49425 250.43811029 C-68.505237 247.71402343 -68.50912223 244.98997479 -68.51293945 242.26586914 C-68.51920801 240.3090503 -68.52585516 238.35223263 -68.53285217 236.39541626 C-68.55385341 229.97455671 -68.56425291 223.55369703 -68.57421875 217.1328125 C-68.57826819 214.91733729 -68.58238516 212.70186221 -68.58656883 210.48638725 C-68.60561417 200.07302584 -68.61984494 189.65967147 -68.6281808 179.24629599 C-68.63794219 167.25204524 -68.6642359 155.25797958 -68.70468169 143.263794 C-68.73491612 133.97688969 -68.74965673 124.6900382 -68.75296181 115.40308565 C-68.75530448 109.86433879 -68.76416225 104.32578979 -68.78942299 98.78709602 C-68.8128363 93.56920205 -68.81688396 88.35163437 -68.80666161 83.13370132 C-68.8061693 81.22910535 -68.81239857 79.32449258 -68.82621765 77.41994667 C-68.92434578 63.08202613 -67.48872973 49.93962897 -60.7734375 36.97265625 C-60.43610596 36.31394531 -60.09877441 35.65523437 -59.7512207 34.9765625 C-51.11600646 18.96660769 -36.52104857 8.74776321 -19.44921875 3.2265625 C-12.95472988 1.33346881 -6.72189528 0.46086573 0 0 Z " fill="#3CB6A4" transform="translate(72.3359375,71.83984375)"/>
<path d="M0 0 C10.55334078 3.1382679 10.55334078 3.1382679 15.04272461 4.66308594 C16.33769615 5.10160385 16.33769615 5.10160385 17.65882874 5.54898071 C18.56418869 5.85766083 19.46954865 6.16634094 20.40234375 6.484375 C21.37960922 6.81617767 22.35687469 7.14798035 23.36375427 7.48983765 C26.55570742 8.57449946 29.74665062 9.66209581 32.9375 10.75 C34.04965881 11.12848083 35.16181763 11.50696167 36.30767822 11.89691162 C51.85219085 17.18742817 67.36664443 22.55778302 82.85952759 27.99731445 C101.56601391 34.55806489 120.34436857 40.90547665 139.125 47.25 C139.88635002 47.50722084 140.64770004 47.76444168 141.43212128 48.02945709 C160.70657751 54.54297135 160.70657751 54.54297135 180 61 C180.07003185 84.92151588 180.1229596 108.84301642 180.15543652 132.76461411 C180.17091585 143.87143121 180.19202574 154.97818468 180.22631836 166.08496094 C180.25618807 175.76383514 180.27556724 185.44266326 180.28226548 195.12158227 C180.28618186 200.24812285 180.29540803 205.37453158 180.31719017 210.50102997 C180.33751694 215.32397043 180.34384152 220.14672444 180.33932304 224.96970367 C180.34014995 226.74184685 180.34613824 228.5139961 180.35761642 230.28610229 C180.37250111 232.70217565 180.3689686 235.11754128 180.36076355 237.53363037 C180.36950207 238.23791349 180.3782406 238.94219661 180.38724393 239.66782165 C180.35969374 242.6608118 180.1119358 244.78082532 178.74179363 247.46361732 C177 249 177 249 175.05842781 249.33977699 C166.95871434 248.3085552 159.38245413 245.80443242 151.67138672 243.22412109 C150.14624073 242.72218561 148.62081133 242.22111062 147.09512329 241.7208252 C142.97621151 240.36693871 138.8618594 238.99968896 134.74857473 237.62881422 C131.30543206 236.48233179 127.86034812 235.34174251 124.41533673 234.20089018 C116.28509461 231.5080383 108.15879166 228.80353392 100.03466797 226.09228516 C91.67116805 223.30143573 83.30050246 220.53292904 74.9261378 217.77487123 C67.71779305 215.39979986 60.51457571 213.00962046 53.31514561 210.6076628 C49.02325669 209.1760068 44.72961127 207.75033566 40.4307518 206.33973312 C36.38809135 205.01258447 32.35217602 203.66663067 28.32055283 202.30633545 C26.84584208 201.81224493 25.36891368 201.32471378 23.88962555 200.8445015 C14.62927077 197.83299105 6.60539755 194.88172338 1.31969547 186.25880814 C-0.19765807 182.51191033 -0.4107492 179.30410819 -0.36076355 175.33108521 C-0.36332682 174.57866857 -0.3658901 173.82625194 -0.36853105 173.05103481 C-0.37345585 170.54047544 -0.35699799 168.03052311 -0.34057617 165.52001953 C-0.33972962 163.71620193 -0.3402056 161.91238329 -0.34190369 160.10856628 C-0.34276395 155.21849088 -0.32513305 150.32863652 -0.30418181 145.43861246 C-0.28542028 140.32569406 -0.28366498 135.21277051 -0.28010559 130.099823 C-0.2707836 120.42079012 -0.24616768 110.74185896 -0.21605712 101.06287086 C-0.18251795 90.0423995 -0.16602831 79.02192328 -0.15097082 68.00141358 C-0.1196183 45.33421934 -0.06685475 22.66711537 0 0 Z " fill="#FCFCFC" transform="translate(67,175)"/>
<path d="M0 0 C0 20.79 0 41.58 0 63 C-5.61 64.98 -11.22 66.96 -17 69 C-26.20344708 72.40127392 -31.18878285 74.95743715 -35.984375 83.68359375 C-39.67353927 92.09772611 -39.01761919 103.43877703 -36 112 C-33.79518622 116.0421586 -32.2347411 118.25582092 -28 120 C-21.12965321 120.78840045 -15.62539314 119.13384845 -9.22924805 116.77905273 C-5.8828184 115.55515332 -3.62707919 115 0 115 C0.06960994 123.76243442 0.12286691 132.52477316 0.15543652 141.28742409 C0.17107087 145.35659195 0.19226809 149.42557017 0.22631836 153.49462891 C0.25899183 157.42389151 0.27686979 161.35297207 0.28463173 165.28236008 C0.29016095 166.77903482 0.30095824 168.27569997 0.31719017 169.77229691 C0.33907143 171.87396777 0.34196258 173.97489312 0.34057617 176.07666016 C0.35056892 177.8686937 0.35056892 177.8686937 0.36076355 179.69692993 C-0.3271089 185.99493569 -3.14863166 189.78754699 -7.95876122 193.65071487 C-11.5769917 196.04241183 -15.46612494 197.30317111 -19.57543945 198.61474609 C-20.51611204 198.92991306 -21.45678463 199.24508003 -22.42596245 199.56979752 C-25.54604565 200.61132464 -28.67320001 201.62967036 -31.80078125 202.6484375 C-34.02881378 203.38761806 -36.25628553 204.1284908 -38.48323059 204.87094116 C-43.21369051 206.44622826 -47.94678099 208.01324784 -52.68170166 209.57507324 C-59.93015285 211.97068493 -67.16290891 214.41119167 -74.39208984 216.86425781 C-85.30733959 220.5676532 -96.22862218 224.25242307 -107.15637016 227.91878128 C-113.37180629 230.00463941 -119.58521544 232.09617133 -125.79418945 234.20117188 C-131.95508333 236.289858 -138.12111034 238.36288532 -144.29058266 240.42609787 C-146.60595832 241.20318016 -148.91960816 241.98542576 -151.23140526 242.77309036 C-154.41954106 243.85835149 -157.61339766 244.92476282 -160.80932617 245.98681641 C-161.74353897 246.30968124 -162.67775177 246.63254608 -163.64027405 246.9651947 C-168.87507485 248.67970526 -172.62831115 249.49335141 -178 248 C-179.48722532 245.02554937 -179.13355742 241.99700093 -179.12025452 238.73617554 C-179.12110894 237.9790095 -179.12196337 237.22184346 -179.12284368 236.441733 C-179.12449767 233.89130744 -179.11897843 231.3409469 -179.11352539 228.79052734 C-179.11324348 226.96759543 -179.11340134 225.14466341 -179.1139679 223.32173157 C-179.1142557 218.36125452 -179.10836169 213.40080148 -179.10139394 208.44033003 C-179.0951576 203.26064646 -179.09455638 198.08096238 -179.09336853 192.90127563 C-179.09025604 183.08757237 -179.08204376 173.2738802 -179.07201904 163.46018183 C-179.06085535 152.28985371 -179.05534681 141.11952507 -179.05032361 129.94919276 C-179.03986109 106.96612235 -179.02226323 83.9830618 -179 61 C-152.28491581 51.33442344 -152.28491581 51.33442344 -140.8203125 47.4921875 C-138.57332349 46.7336428 -136.32633456 45.97509787 -134.0793457 45.21655273 C-132.94566559 44.8348996 -131.81198547 44.45324646 -130.64395142 44.06002808 C-112.49912457 37.94964839 -94.37841387 31.7774183 -76.3125 25.4375 C-60.75772651 19.98285731 -45.17544564 14.61192637 -29.57138062 9.29983521 C-27.15974935 8.47867552 -24.74847041 7.65648031 -22.33755493 6.83322144 C-18.98522543 5.68901246 -15.63152417 4.54892615 -12.27734375 3.41015625 C-11.26499664 3.06409332 -10.25264954 2.7180304 -9.20962524 2.36148071 C-8.28571991 2.04891327 -7.36181458 1.73634583 -6.40991211 1.41430664 C-5.60251083 1.13978165 -4.79510956 0.86525665 -3.96324158 0.58241272 C-2 0 -2 0 0 0 Z " fill="#AAE0DD" transform="translate(437,175)"/>
<path d="M0 0 C0 33.33 0 66.66 0 101 C-14.355 105.95 -14.355 105.95 -29 111 C-35.81416436 113.36683713 -42.62802619 115.7344781 -49.44104004 118.10461426 C-67.99561574 124.55760774 -86.57166474 130.94325535 -105.17935181 137.24151611 C-115.46371125 140.72259557 -125.73258234 144.23681816 -135.95703125 147.890625 C-136.82188141 148.19881165 -137.68673157 148.50699829 -138.57778931 148.82452393 C-142.62645529 150.26814897 -146.67124614 151.72114751 -150.70996094 153.19238281 C-152.13073414 153.70152149 -153.55162545 154.21033074 -154.97265625 154.71875 C-156.19218994 155.16154297 -157.41172363 155.60433594 -158.66821289 156.06054688 C-165.54953445 158.00085063 -170.37202821 156.45291864 -176.84765625 154.0625 C-177.71535645 153.75097488 -178.58305664 153.43944977 -179.47705078 153.1184845 C-182.3420968 152.08770769 -185.20217679 151.04380286 -188.0625 150 C-190.07898752 149.27203765 -192.09583957 148.54508436 -194.11303711 147.8190918 C-198.3124347 146.30690132 -202.51022015 144.79034918 -206.70703125 143.27099609 C-212.70338248 141.10322469 -218.70892061 138.96211594 -224.71875 136.83203125 C-225.66276672 136.49742889 -226.60678345 136.16282654 -227.57940674 135.81808472 C-229.46846898 135.14871998 -231.35756785 134.47945859 -233.2467041 133.81030273 C-244.83809121 129.70278991 -256.42453963 125.58231414 -267.984375 121.38671875 C-268.77358337 121.1002951 -269.56279175 120.81387146 -270.37591553 120.51876831 C-273.43544402 119.4080425 -276.49489769 118.2971116 -279.55407715 117.1854248 C-289.71552286 113.49644554 -299.91765134 109.97796264 -310.19458008 106.62109375 C-317.93965673 104.07332562 -325.49096683 101.17689865 -333 98 C-333 97.67 -333 97.34 -333 97 C-318.22886176 97.92521208 -303.50095747 99.39529808 -288.76635742 100.76782227 C-257.05523152 103.71652005 -225.40811476 106.16393502 -193.54663086 106.35009766 C-191.45765172 106.36682917 -189.36873359 106.39433746 -187.2800293 106.43212891 C-175.16119212 106.64821795 -164.9332868 106.79586057 -154 101 C-153.22035889 100.61875977 -152.44071777 100.23751953 -151.63745117 99.84472656 C-149.50849503 98.77009924 -147.4421245 97.6262381 -145.375 96.4375 C-144.24106812 95.79578857 -144.24106812 95.79578857 -143.08422852 95.14111328 C-135.12094104 90.58386458 -127.38372162 85.67863976 -119.67089844 80.71289062 C-116.770504 78.85282048 -113.85874341 77.01145398 -110.9453125 75.171875 C-99.2528483 67.77009943 -87.7690911 60.15970239 -76.48046875 52.15625 C-72.59605859 49.40523735 -68.66254188 46.74276416 -64.6875 44.125 C-54.32171496 37.28346689 -44.17274685 30.12380765 -34 23 C-33.19143555 22.4342627 -32.38287109 21.86852539 -31.54980469 21.28564453 C-25.22119188 16.85344358 -18.89674858 12.42036991 -12.69140625 7.81640625 C-11.65016602 7.04453979 -11.65016602 7.04453979 -10.58789062 6.25708008 C-9.26929188 5.27591927 -7.95399797 4.29029621 -6.64257812 3.29956055 C-2.21784722 0 -2.21784722 0 0 0 Z " fill="#FDFDFD" transform="translate(418,66)"/>
<path d="M0 0 C2.475 0.99 2.475 0.99 5 2 C4.67 2.66 4.34 3.32 4 4 C3.01 3.67 2.02 3.34 1 3 C1 11.25 1 19.5 1 28 C2.32 28.33 3.64 28.66 5 29 C5 29.66 5 30.32 5 31 C4.01 31 3.02 31 2 31 C2.33 38.92 2.66 46.84 3 55 C3.66 55.33 4.32 55.66 5 56 C5 56.66 5 57.32 5 58 C4.01 58 3.02 58 2 58 C2 66.25 2 74.5 2 83 C3.32 83 4.64 83 6 83 C6 83.99 6 84.98 6 86 C4.68 85.67 3.36 85.34 2 85 C2 93.25 2 101.5 2 110 C3.32 110.33 4.64 110.66 6 111 C6 111.66 6 112.32 6 113 C5.01 113 4.02 113 3 113 C3 120.92 3 128.84 3 137 C6.63 138.32 10.26 139.64 14 141 C14 118.23 14 95.46 14 72 C24.89 72 35.78 72 47 72 C57.18332787 84.83378307 57.18332787 84.83378307 59.6015625 90.6171875 C62.89582698 98.10825638 67.05086505 104.76091841 71.5 111.625 C72.76380486 113.63589541 74.02456006 115.64871304 75.28125 117.6640625 C76.1873623 119.10946134 77.09355428 120.55481024 78 122 C85.25081869 108.37244201 92.2472531 94.63163217 99.125 80.8125 C100.0909549 78.87555581 101.05709989 76.93870641 102.0234375 75.00195312 C104.35113922 70.33571925 106.67630671 65.6682312 109 61 C112.38943747 63.25962498 112.90947225 64.44963498 114.5390625 68.08984375 C115.27443237 69.6996814 115.27443237 69.6996814 116.0246582 71.34204102 C116.83777919 73.16886523 117.65053964 74.99587862 118.45199585 76.82785034 C121.73845745 84.33853136 125.14335618 91.42099547 129.63671875 98.2890625 C147.68607129 126.99780116 143.61571648 160.40097491 142 193 C143.65 192.67 145.3 192.34 147 192 C146.67 193.32 146.34 194.64 146 196 C138.35179989 193.873918 131.034848 191.1578635 123.671875 188.203125 C122.50164795 187.7375116 121.3314209 187.27189819 120.12573242 186.79217529 C117.62663404 185.79723114 115.12817688 184.80084235 112.6307373 183.80175781 C108.70373799 182.23082159 104.77444572 180.6656804 100.84472656 179.1015625 C96.89757471 177.53022476 92.95054284 175.95859119 89.0043335 174.3848877 C79.34041018 170.53105751 69.66872722 166.6973837 59.98925781 162.88278198 C57.76588297 162.00626154 55.54302653 161.1284388 53.3203125 160.25024414 C46.23247548 157.45083019 39.14073162 154.66186103 32.04193115 151.89035034 C28.47159886 150.4957579 24.90278254 149.09731054 21.33410645 147.69848633 C19.62677764 147.03052387 17.91870001 146.3644719 16.20983887 145.70043945 C13.86199159 144.78804124 11.51670565 143.86933628 9.171875 142.94921875 C8.4718335 142.67913498 7.77179199 142.40905121 7.05053711 142.13078308 C4.21644932 141.012467 2.17884435 140.17884435 0 138 C-0.21767289 135.59807212 -0.31137619 133.30797355 -0.31884766 130.90307617 C-0.32888762 130.16765185 -0.33892757 129.43222754 -0.34927177 128.67451763 C-0.38037479 126.2140094 -0.39725407 123.75361307 -0.4140625 121.29296875 C-0.43291716 119.55509573 -0.45258626 117.81723137 -0.47302246 116.07937622 C-0.52518671 111.41354127 -0.56469432 106.74767927 -0.60129547 102.08169937 C-0.63277069 98.23873965 -0.67103243 94.39585986 -0.70925713 90.5529623 C-0.93445133 67.80686503 -1.09343538 45.0597287 -1.125 22.3125 C-1.12767883 21.19781342 -1.13035767 20.08312683 -1.13311768 18.93466187 C-1.13879946 15.8691656 -1.13737352 12.80377723 -1.1328125 9.73828125 C-1.13478638 8.85077179 -1.13676025 7.96326233 -1.13879395 7.04885864 C-1.11558679 1.11558679 -1.11558679 1.11558679 0 0 Z " fill="#F26225" transform="translate(89,205)"/>
<path d="M0 0 C0 20.79 0 41.58 0 63 C-8 66 -8 66 -11 66 C-11.02187378 64.02422974 -11.02187378 64.02422974 -11.04418945 62.00854492 C-11.10210713 57.12740762 -11.17934036 52.24673482 -11.26245117 47.3659668 C-11.29573128 45.25243664 -11.32375353 43.13881694 -11.34643555 41.02514648 C-11.37992472 37.98903194 -11.43223764 34.95374025 -11.48828125 31.91796875 C-11.49786613 30.4975251 -11.49786613 30.4975251 -11.50764465 29.04838562 C-11.52743881 28.16769913 -11.54723297 27.28701263 -11.56762695 26.37963867 C-11.57873001 25.60464523 -11.58983307 24.82965179 -11.60127258 24.03117371 C-12.10811532 21.44924531 -12.90294222 20.55746863 -15 19 C-22.27516806 18.09131674 -28.3669436 20.46217682 -35.17578125 22.84765625 C-36.94883385 23.45269737 -36.94883385 23.45269737 -38.75770569 24.06996155 C-41.95155026 25.16263063 -45.14128557 26.2659987 -48.32958221 27.37467194 C-51.65961252 28.529782 -54.99441083 29.6709668 -58.32861328 30.81396484 C-66.22538616 33.52451583 -74.11326688 36.26040071 -82 39 C-84.17071048 39.75283958 -86.34144452 40.50561124 -88.51220703 41.25830078 C-96.71850758 44.10577542 -104.92102323 46.96362469 -113.11618042 49.84301758 C-120.0217264 52.26916884 -126.93465291 54.66742299 -133.87109375 57.00390625 C-135.23846785 57.46656367 -136.60581885 57.92928934 -137.97314453 58.39208984 C-140.43084696 59.22360291 -142.89131962 60.04393427 -145.35498047 60.85791016 C-155.68451648 64.27947125 -155.68451648 64.27947125 -163 72 C-163.4511299 75.01857907 -163.4511299 75.01857907 -163.38095093 78.42115784 C-163.38797089 79.38478592 -163.38797089 79.38478592 -163.39513266 80.36788124 C-163.40708916 82.51833263 -163.39762349 84.66814751 -163.38818359 86.81860352 C-163.39224899 88.36110811 -163.39759068 89.9036098 -163.40411377 91.44610596 C-163.41779597 95.63402606 -163.41248535 99.82172456 -163.40297651 104.00964856 C-163.39538595 108.38981556 -163.40242372 112.76996348 -163.40713501 117.15013123 C-163.41259375 124.50498871 -163.40539726 131.85975584 -163.39111328 139.21459961 C-163.37478046 147.72275864 -163.38007935 156.23070208 -163.3965925 164.7388559 C-163.41019678 172.04000336 -163.4121324 179.34108585 -163.40427649 186.6422419 C-163.39959492 191.00463423 -163.39898849 195.36692514 -163.40888596 199.72931099 C-163.41753821 203.82925155 -163.41156583 207.92891346 -163.39420319 212.02882385 C-163.39022925 213.53530349 -163.39138786 215.04180649 -163.39799118 216.5482769 C-163.40615999 218.60078481 -163.39411098 220.65334383 -163.38095093 222.70582581 C-163.37925431 224.43054281 -163.37925431 224.43054281 -163.37752342 226.19010258 C-163.22588423 228.99902666 -163.22588423 228.99902666 -161.64447975 230.87159634 C-159.02231517 232.67086453 -157.12569665 232.32948216 -154 232 C-151.29362659 231.2233247 -148.71814046 230.38762005 -146.08203125 229.421875 C-145.29700226 229.14348282 -144.51197327 228.86509064 -143.70315552 228.57826233 C-141.98200536 227.96713353 -140.26231377 227.3518852 -138.54391479 226.73306274 C-133.75266735 225.0086462 -128.95000376 223.31651981 -124.1484375 221.62109375 C-123.11136154 221.25412888 -122.07428558 220.887164 -121.00578308 220.50907898 C-109.6015627 216.48466397 -98.14492034 212.61618084 -86.68563175 208.75215149 C-78.52874729 206.00150871 -70.37823106 203.23210962 -62.22703552 200.46466064 C-55.96659684 198.34046617 -49.70240787 196.22835208 -43.43208313 194.13352966 C-40.21123752 193.05350561 -36.99566733 191.95850724 -33.7817688 190.85800171 C-32.36699711 190.37717592 -30.94994492 189.90299793 -29.53048706 189.43618774 C-19.71802276 186.32643628 -19.71802276 186.32643628 -13 179 C-11.67789941 176.35579883 -11.83877878 174.31800385 -11.79467773 171.35693359 C-11.77473251 170.17586029 -11.75478729 168.99478699 -11.73423767 167.77792358 C-11.71752518 166.49769318 -11.70081268 165.21746277 -11.68359375 163.8984375 C-11.6524221 161.93833237 -11.6524221 161.93833237 -11.62062073 159.93862915 C-11.56540706 156.463311 -11.51599475 152.98793347 -11.46777344 149.51251221 C-11.41755323 145.966621 -11.36186988 142.4208161 -11.30664062 138.875 C-11.19906772 131.9167415 -11.09762083 124.95840504 -11 118 C-4.5 115 -4.5 115 0 115 C0.06960994 123.76243442 0.12286691 132.52477316 0.15543652 141.28742409 C0.17107087 145.35659195 0.19226809 149.42557017 0.22631836 153.49462891 C0.25899183 157.42389151 0.27686979 161.35297207 0.28463173 165.28236008 C0.29016095 166.77903482 0.30095824 168.27569997 0.31719017 169.77229691 C0.33907143 171.87396777 0.34196258 173.97489312 0.34057617 176.07666016 C0.35056892 177.8686937 0.35056892 177.8686937 0.36076355 179.69692993 C-0.3271089 185.99493569 -3.14863166 189.78754699 -7.95876122 193.65071487 C-11.5769917 196.04241183 -15.46612494 197.30317111 -19.57543945 198.61474609 C-20.51611204 198.92991306 -21.45678463 199.24508003 -22.42596245 199.56979752 C-25.54604565 200.61132464 -28.67320001 201.62967036 -31.80078125 202.6484375 C-34.02881378 203.38761806 -36.25628553 204.1284908 -38.48323059 204.87094116 C-43.21369051 206.44622826 -47.94678099 208.01324784 -52.68170166 209.57507324 C-59.93015285 211.97068493 -67.16290891 214.41119167 -74.39208984 216.86425781 C-85.30733959 220.5676532 -96.22862218 224.25242307 -107.15637016 227.91878128 C-113.37180629 230.00463941 -119.58521544 232.09617133 -125.79418945 234.20117188 C-131.95508333 236.289858 -138.12111034 238.36288532 -144.29058266 240.42609787 C-146.60595832 241.20318016 -148.91960816 241.98542576 -151.23140526 242.77309036 C-154.41954106 243.85835149 -157.61339766 244.92476282 -160.80932617 245.98681641 C-161.74353897 246.30968124 -162.67775177 246.63254608 -163.64027405 246.9651947 C-168.87507485 248.67970526 -172.62831115 249.49335141 -178 248 C-179.48722532 245.02554937 -179.13355742 241.99700093 -179.12025452 238.73617554 C-179.12110894 237.9790095 -179.12196337 237.22184346 -179.12284368 236.441733 C-179.12449767 233.89130744 -179.11897843 231.3409469 -179.11352539 228.79052734 C-179.11324348 226.96759543 -179.11340134 225.14466341 -179.1139679 223.32173157 C-179.1142557 218.36125452 -179.10836169 213.40080148 -179.10139394 208.44033003 C-179.0951576 203.26064646 -179.09455638 198.08096238 -179.09336853 192.90127563 C-179.09025604 183.08757237 -179.08204376 173.2738802 -179.07201904 163.46018183 C-179.06085535 152.28985371 -179.05534681 141.11952507 -179.05032361 129.94919276 C-179.03986109 106.96612235 -179.02226323 83.9830618 -179 61 C-152.28491581 51.33442344 -152.28491581 51.33442344 -140.8203125 47.4921875 C-138.57332349 46.7336428 -136.32633456 45.97509787 -134.0793457 45.21655273 C-132.94566559 44.8348996 -131.81198547 44.45324646 -130.64395142 44.06002808 C-112.49912457 37.94964839 -94.37841387 31.7774183 -76.3125 25.4375 C-60.75772651 19.98285731 -45.17544564 14.61192637 -29.57138062 9.29983521 C-27.15974935 8.47867552 -24.74847041 7.65648031 -22.33755493 6.83322144 C-18.98522543 5.68901246 -15.63152417 4.54892615 -12.27734375 3.41015625 C-11.26499664 3.06409332 -10.25264954 2.7180304 -9.20962524 2.36148071 C-8.28571991 2.04891327 -7.36181458 1.73634583 -6.40991211 1.41430664 C-5.60251083 1.13978165 -4.79510956 0.86525665 -3.96324158 0.58241272 C-2 0 -2 0 0 0 Z " fill="#FBFCFC" transform="translate(437,175)"/>
<path d="M0 0 C0 33.33 0 66.66 0 101 C-11 105 -11 105 -13 105 C-13 84.54 -13 64.08 -13 43 C-17.95 43.495 -17.95 43.495 -23 44 C-26.13003524 42.2752867 -27.61876182 41.31635069 -28.62109375 37.85546875 C-28.74613281 37.24316406 -28.87117188 36.63085938 -29 36 C-35.2360414 40.1550192 -41.46992215 44.31324747 -47.70089722 48.4758606 C-51.01145231 50.68719695 -54.32271405 52.89747399 -57.6340332 55.10766602 C-59.32767231 56.23843204 -61.02103467 57.3696127 -62.71411133 58.5012207 C-86.54691843 74.42909829 -110.56556518 90.06341934 -135.375 104.4375 C-136.50478271 105.09459961 -137.63456543 105.75169922 -138.79858398 106.42871094 C-139.84216064 107.02844727 -140.8857373 107.62818359 -141.9609375 108.24609375 C-142.88696777 108.77904053 -143.81299805 109.3119873 -144.76708984 109.86108398 C-147 111 -147 111 -149 111 C-149.14695312 111.6290625 -149.29390625 112.258125 -149.4453125 112.90625 C-151.44714544 120.54542856 -154.28244804 126.46890079 -160.9375 131 C-166.04885007 132.66901227 -170.07924507 132.63739355 -175 130.5 C-179.6117486 127.99596463 -183.0278878 124.29098699 -186 120 C-186 119.34 -186 118.68 -186 118 C-186.83136475 118.00523682 -187.66272949 118.01047363 -188.51928711 118.01586914 C-191.64477272 118.03305289 -194.77023401 118.04551856 -197.89575195 118.05493164 C-199.89731458 118.06235104 -201.89885533 118.07506659 -203.90039062 118.08789062 C-210.00664776 118.10327163 -215.97606666 118.0381088 -222.0324707 117.23852539 C-224.65602691 116.92046925 -227.28124014 116.8432408 -229.92114258 116.75976562 C-242.94681572 116.33264706 -255.87747711 114.85749368 -268.82666016 113.4597168 C-270.4534305 113.28545751 -272.08022062 113.11138279 -273.70703125 112.9375 C-274.49964355 112.85166656 -275.29225586 112.76583313 -276.10888672 112.67739868 C-281.09860006 112.15176131 -286.06307507 111.81927091 -291.07421875 111.57421875 C-297.18062314 111.19613099 -302.32383886 110.04072049 -308 107.8125 C-309.24958496 107.34928345 -309.24958496 107.34928345 -310.52441406 106.87670898 C-313.02609086 105.94133059 -315.51407966 104.97639763 -318 104 C-318.77666016 103.69771484 -319.55332031 103.39542969 -320.35351562 103.08398438 C-324.58657193 101.43107667 -328.80060202 99.73702371 -333 98 C-333 97.67 -333 97.34 -333 97 C-318.22886176 97.92521208 -303.50095747 99.39529808 -288.76635742 100.76782227 C-257.05523152 103.71652005 -225.40811476 106.16393502 -193.54663086 106.35009766 C-191.45765172 106.36682917 -189.36873359 106.39433746 -187.2800293 106.43212891 C-175.16119212 106.64821795 -164.9332868 106.79586057 -154 101 C-153.22035889 100.61875977 -152.44071777 100.23751953 -151.63745117 99.84472656 C-149.50849503 98.77009924 -147.4421245 97.6262381 -145.375 96.4375 C-144.24106812 95.79578857 -144.24106812 95.79578857 -143.08422852 95.14111328 C-135.12094104 90.58386458 -127.38372162 85.67863976 -119.67089844 80.71289062 C-116.770504 78.85282048 -113.85874341 77.01145398 -110.9453125 75.171875 C-99.2528483 67.77009943 -87.7690911 60.15970239 -76.48046875 52.15625 C-72.59605859 49.40523735 -68.66254188 46.74276416 -64.6875 44.125 C-54.32171496 37.28346689 -44.17274685 30.12380765 -34 23 C-33.19143555 22.4342627 -32.38287109 21.86852539 -31.54980469 21.28564453 C-25.22119188 16.85344358 -18.89674858 12.42036991 -12.69140625 7.81640625 C-11.65016602 7.04453979 -11.65016602 7.04453979 -10.58789062 6.25708008 C-9.26929188 5.27591927 -7.95399797 4.29029621 -6.64257812 3.29956055 C-2.21784722 0 -2.21784722 0 0 0 Z " fill="#42C3BB" transform="translate(418,66)"/>
<path d="M0 0 C3.38943747 2.25962498 3.90947225 3.44963498 5.5390625 7.08984375 C6.27443237 8.70632813 6.27443237 8.70632813 7.0246582 10.35546875 C7.552771 11.53753906 8.08088379 12.71960938 8.625 13.9375 C9.77118496 16.48068643 10.92453188 19.02053799 12.08203125 21.55859375 C12.38789658 22.23002411 12.6937619 22.90145447 13.00889587 23.5932312 C15.43143512 28.86597316 18.00944141 34.04940245 20.63671875 39.22265625 C21.42076477 40.78050192 22.20445745 42.33852547 22.98779297 43.89672852 C24.13717213 46.18239492 25.29317371 48.46291983 26.47564697 50.73165894 C31.10960077 59.63239398 34.36610999 66.66347132 33 77 C28.24943024 74.39792913 24.01591575 71.61557172 19.75 68.25 C18.62023284 67.37443045 17.4900165 66.4994402 16.359375 65.625 C14.18683332 63.93496757 12.03610985 62.22501295 9.890625 60.5 C8.93671875 59.7575 7.9828125 59.015 7 58.25 C5.7315625 57.23679687 5.7315625 57.23679687 4.4375 56.203125 C2.07172857 54.6903168 2.07172857 54.6903168 -0.31835938 55.70043945 C-3.21700298 57.10516268 -5.71431022 58.72935135 -8.34375 60.58984375 C-9.34277344 61.29173828 -10.34179688 61.99363281 -11.37109375 62.71679688 C-12.40363281 63.44962891 -13.43617188 64.18246094 -14.5 64.9375 C-16.55107514 66.38554369 -18.60312466 67.83220843 -20.65625 69.27734375 C-22.01459961 70.24015259 -22.01459961 70.24015259 -23.40039062 71.22241211 C-25.88168193 72.91909524 -28.40616171 74.48234732 -31 76 C-44.45915463 66.16240367 -57.77107226 56.14476423 -71 46 C-71.67385742 45.48356934 -72.34771484 44.96713867 -73.04199219 44.43505859 C-79.71647237 39.31772305 -86.36105761 34.16362186 -93 29 C-93.33 46.16 -93.66 63.32 -94 81 C-94.66 80.67 -95.32 80.34 -96 80 C-95.67 57.23 -95.34 34.46 -95 11 C-84.11 11 -73.22 11 -62 11 C-51.81667213 23.83378307 -51.81667213 23.83378307 -49.3984375 29.6171875 C-46.10417302 37.10825638 -41.94913495 43.76091841 -37.5 50.625 C-36.23619514 52.63589541 -34.97543994 54.64871304 -33.71875 56.6640625 C-32.8126377 58.10946134 -31.90644572 59.55481024 -31 61 C-23.74918131 47.37244201 -16.7527469 33.63163217 -9.875 19.8125 C-8.9090451 17.87555581 -7.94290011 15.93870641 -6.9765625 14.00195312 C-4.64886078 9.33571925 -2.32369329 4.6682312 0 0 Z " fill="#F78F2F" transform="translate(198,266)"/>
<path d="M0 0 C1.78125 1.12890625 1.78125 1.12890625 3.375 2.3125 C4.40625 3.01375 5.4375 3.715 6.5 4.4375 C12.08447737 9.42853155 15.06870759 15.89290705 16.9621582 23.00537109 C17.36093925 24.4950087 17.36093925 24.4950087 17.76777649 26.01473999 C17.96816025 26.77300079 18.16854401 27.5312616 18.375 28.3125 C16.10621083 29.09981582 13.83741704 29.88711833 11.56861877 30.67440796 C9.54024231 31.3782705 7.51187129 32.0821487 5.48350525 32.78604126 C-0.10264405 34.72448177 -5.68897367 36.66240019 -11.27563477 38.59936523 C-25.44074674 43.5105522 -25.44074674 43.5105522 -39.59765625 48.4453125 C-40.81018066 48.86820557 -42.02270508 49.29109863 -43.27197266 49.72680664 C-45.41184454 50.47349142 -47.5508902 51.22254967 -49.68896484 51.97436523 C-50.60500488 52.29348877 -51.52104492 52.6126123 -52.46484375 52.94140625 C-53.23175537 53.21025635 -53.99866699 53.47910645 -54.78881836 53.75610352 C-56.625 54.3125 -56.625 54.3125 -58.625 54.3125 C-59.50854879 38.99765423 -52.653906 24.08561382 -42.85546875 12.5625 C-38.84879328 8.52073981 -34.43595252 5.32977369 -29.625 2.3125 C-28.56539063 1.62800781 -28.56539063 1.62800781 -27.484375 0.9296875 C-19.91556545 -3.20138031 -7.86115543 -3.71095006 0 0 Z " fill="#85DCD9" transform="translate(370.625,148.6875)"/>
<path d="M0 0 C0 33.33 0 66.66 0 101 C-2.64 101.66 -5.28 102.32 -8 103 C-8.495 58.945 -8.495 58.945 -9 14 C-22.43133668 23.18738889 -22.43133668 23.18738889 -35.84375 32.40234375 C-44.76442707 38.53808861 -53.72660825 44.61188858 -62.69970703 50.6706543 C-64.56739991 51.93244611 -66.43426196 53.19546859 -68.30029297 54.4597168 C-79.17532212 61.82743959 -90.10266358 69.05626544 -101.28961182 75.94186401 C-103.85205749 77.52712753 -106.39252379 79.146384 -108.93359375 80.765625 C-119.21680492 87.29089163 -129.59035063 93.62077682 -140.1875 99.625 C-141.17741943 100.19250977 -142.16733887 100.76001953 -143.18725586 101.34472656 C-153.72414268 107.23685 -164.29075947 112.14665072 -176.47265625 112.16796875 C-177.58389107 112.17445686 -177.58389107 112.17445686 -178.71757507 112.18107605 C-181.16594699 112.19129681 -183.61411061 112.19121737 -186.0625 112.1875 C-186.91775269 112.18623108 -187.77300537 112.18496216 -188.6541748 112.18365479 C-217.99185323 112.10139453 -247.05448413 109.63905779 -276.25 107 C-277.34691414 106.90105061 -277.34691414 106.90105061 -278.46598816 106.80010223 C-282.74831847 106.41329489 -287.03018983 106.02186731 -291.3115387 105.62434006 C-293.25144016 105.44460498 -295.19157287 105.2673712 -297.13171387 105.09024048 C-303.44748636 104.49673554 -309.7516883 103.83205742 -316.04589844 103.04296875 C-317.23681091 102.89496826 -318.42772339 102.74696777 -319.65472412 102.59448242 C-324.41477626 101.74858288 -328.6636253 100.10186633 -333 98 C-333 97.67 -333 97.34 -333 97 C-318.22886176 97.92521208 -303.50095747 99.39529808 -288.76635742 100.76782227 C-257.05523152 103.71652005 -225.40811476 106.16393502 -193.54663086 106.35009766 C-191.45765172 106.36682917 -189.36873359 106.39433746 -187.2800293 106.43212891 C-175.16119212 106.64821795 -164.9332868 106.79586057 -154 101 C-153.22035889 100.61875977 -152.44071777 100.23751953 -151.63745117 99.84472656 C-149.50849503 98.77009924 -147.4421245 97.6262381 -145.375 96.4375 C-144.24106812 95.79578857 -144.24106812 95.79578857 -143.08422852 95.14111328 C-135.12094104 90.58386458 -127.38372162 85.67863976 -119.67089844 80.71289062 C-116.770504 78.85282048 -113.85874341 77.01145398 -110.9453125 75.171875 C-99.2528483 67.77009943 -87.7690911 60.15970239 -76.48046875 52.15625 C-72.59605859 49.40523735 -68.66254188 46.74276416 -64.6875 44.125 C-54.32171496 37.28346689 -44.17274685 30.12380765 -34 23 C-33.19143555 22.4342627 -32.38287109 21.86852539 -31.54980469 21.28564453 C-25.22119188 16.85344358 -18.89674858 12.42036991 -12.69140625 7.81640625 C-11.65016602 7.04453979 -11.65016602 7.04453979 -10.58789062 6.25708008 C-9.26929188 5.27591927 -7.95399797 4.29029621 -6.64257812 3.29956055 C-2.21784722 0 -2.21784722 0 0 0 Z " fill="#F4F9F9" transform="translate(418,66)"/>
<path d="M0 0 C3.12432353 2.69338235 3.52785037 5.71275224 3.86328125 9.73046875 C3.93095703 10.85388672 3.93095703 10.85388672 4 12 C4.07605469 12.80050781 4.15210938 13.60101563 4.23046875 14.42578125 C4.60485019 20.93192352 3.23152754 25.94184847 -1 31 C-6.3162453 35.16655146 -12.16521524 37.01154554 -18.53125 39.109375 C-19.64052856 39.48104797 -20.74980713 39.85272095 -21.8927002 40.23565674 C-24.23119263 41.01651137 -26.57119746 41.79284947 -28.91259766 42.56494141 C-32.49192904 43.74733385 -36.06444848 44.94880958 -39.63671875 46.15234375 C-41.91367858 46.91000892 -44.19101034 47.66655744 -46.46875 48.421875 C-47.53452271 48.78118103 -48.60029541 49.14048706 -49.69836426 49.51068115 C-50.69960327 49.83812317 -51.70084229 50.16556519 -52.73242188 50.50292969 C-54.04430481 50.93783722 -54.04430481 50.93783722 -55.38269043 51.38153076 C-58.3546532 52.08380441 -60.95602788 52.18370756 -64 52 C-66.98072671 49.97736401 -67.88264802 47.3474578 -69 44 C-69.81443354 36.34432476 -70.25930411 29.02406571 -65.484375 22.61328125 C-64.99453125 22.08089844 -64.5046875 21.54851562 -64 21 C-63.41902557 20.35049881 -62.83805115 19.70099762 -62.23947144 19.03181458 C-59.75580634 16.7784494 -57.84815384 15.94298833 -54.68408203 14.87768555 C-53.6226297 14.51438644 -52.56117737 14.15108734 -51.46755981 13.77677917 C-50.3258432 13.40055923 -49.18412659 13.02433929 -48.0078125 12.63671875 C-46.82911591 12.24047806 -45.65041931 11.84423737 -44.43600464 11.43598938 C-41.30784304 10.38915958 -38.17601576 9.35427704 -35.04272461 8.32293701 C-33.12714878 7.688212 -31.21518856 7.0436569 -29.30419922 6.39526367 C-25.62669116 5.14890461 -21.94345861 3.92127527 -18.2578125 2.69921875 C-16.55131027 2.11970711 -16.55131027 2.11970711 -14.81033325 1.52848816 C-13.20869827 1.00718071 -13.20869827 1.00718071 -11.57470703 0.4753418 C-10.17383347 0.01045601 -10.17383347 0.01045601 -8.74465942 -0.46382141 C-5.51551985 -1.09464485 -3.17907901 -0.79321704 0 0 Z " fill="#FAFCFC" transform="translate(475,236)"/>
<path d="M0 0 C0.17284677 1.47845724 0.3378446 2.95783199 0.5 4.4375 C0.5928125 5.26121094 0.685625 6.08492187 0.78125 6.93359375 C0.8534375 7.94550781 0.925625 8.95742188 1 10 C1.16121338 11.05743408 1.16121338 11.05743408 1.32568359 12.13623047 C1.57227994 14.63531879 1.5925031 16.55415807 1 19 C-1.37189716 21.7484688 -4.26974217 23.41506133 -7.375 25.25 C-9.14101292 26.37104002 -10.90529864 27.49480495 -12.66796875 28.62109375 C-13.56563965 29.18296387 -14.46331055 29.74483398 -15.38818359 30.32373047 C-19.27945691 32.82115826 -22.97484256 35.55968997 -26.6875 38.3125 C-34.75718583 44.21778792 -43.0545498 49.75290492 -51.39501953 55.26660156 C-56.69159628 58.77394303 -61.92666123 62.32395715 -67.0625 66.0625 C-76.78078313 73.09500307 -86.91750522 79.50663628 -97 86 C-98.42602539 86.92232422 -98.42602539 86.92232422 -99.88085938 87.86328125 C-111.74249622 95.53024928 -123.70791535 102.93422363 -136.01269531 109.87060547 C-137.77800642 110.87384001 -139.52701502 111.90564017 -141.2734375 112.94140625 C-142.19382812 113.47636719 -143.11421875 114.01132813 -144.0625 114.5625 C-145.16271484 115.21412109 -145.16271484 115.21412109 -146.28515625 115.87890625 C-156.05584016 119.91370666 -166.5654413 119.27430952 -176.9375 119.1875 C-178.59789903 119.1806519 -180.2582995 119.17414268 -181.91870117 119.16796875 C-192.96526275 119.1088166 -203.98231083 118.84403638 -215 118 C-215 117.67 -215 117.34 -215 117 C-213.31596069 116.970271 -213.31596069 116.970271 -211.59790039 116.93994141 C-207.34640771 116.86262745 -203.09520289 116.77412975 -198.84399414 116.68261719 C-197.02015961 116.64483741 -195.19626337 116.6099063 -193.37231445 116.578125 C-170.80256761 116.18031068 -153.51391506 114.67937864 -134.375 101.5 C-133.33666016 100.79584961 -132.29832031 100.09169922 -131.22851562 99.36621094 C-122.0210382 93.09096094 -112.950916 86.63532992 -104 80 C-103.32565918 79.50048828 -102.65131836 79.00097656 -101.95654297 78.48632812 C-92.21943307 71.25694119 -82.58529462 63.89137215 -72.96484375 56.5078125 C-71.15455263 55.11860301 -69.3430575 53.7309808 -67.53125 52.34375 C-56.45557256 43.85488621 -45.49934042 35.21975057 -34.61474609 26.48754883 C-29.77425671 22.60799274 -24.89849769 18.77529144 -20.01245117 14.95336914 C-15.35139968 11.29812701 -10.76714679 7.55806922 -6.20703125 3.77734375 C-1.51648352 0 -1.51648352 0 0 0 Z " fill="#F5F9F9" transform="translate(405,49)"/>
<path d="M0 0 C0.33 2.97 0.66 5.94 1 9 C-0.21171875 9.84820312 -1.4234375 10.69640625 -2.671875 11.5703125 C-3.47093262 12.12968506 -4.26999023 12.68905762 -5.09326172 13.26538086 C-6.89164246 14.52418128 -8.69014872 15.7828024 -10.48876953 17.04125977 C-14.9979878 20.19661789 -19.50568756 23.3540587 -24.0078125 26.51953125 C-59.43743432 51.41525306 -95.23405517 76.56797827 -132.97753906 97.85742188 C-134.84232782 98.91092398 -136.69917 99.97716119 -138.5546875 101.046875 C-139.54726563 101.60890625 -140.53984375 102.1709375 -141.5625 102.75 C-142.38878906 103.21921875 -143.21507812 103.6884375 -144.06640625 104.171875 C-145.02353516 104.58179688 -145.02353516 104.58179688 -146 105 C-146.66 104.67 -147.32 104.34 -148 104 C-146.91203125 103.29875 -145.8240625 102.5975 -144.703125 101.875 C-122.69052867 87.67226948 -101.16665216 72.83326408 -79.97558594 57.43017578 C-77.01778289 55.28894862 -74.03965379 53.1766856 -71.0625 51.0625 C-63.12208325 45.41058764 -55.29269269 39.6082567 -47.45556641 33.81445312 C-43.47350772 30.87205303 -39.48649937 27.93637899 -35.5 25 C-34.3402063 24.14510986 -34.3402063 24.14510986 -33.15698242 23.27294922 C-29.0262988 20.22820453 -24.8935054 17.18637532 -20.7578125 14.1484375 C-19.46907227 13.20097656 -19.46907227 13.20097656 -18.15429688 12.234375 C-16.51299432 11.02779583 -14.87110189 9.8220185 -13.22851562 8.6171875 C-10.12373947 6.33370946 -7.06274494 4.05164262 -4.0859375 1.6015625 C-2 0 -2 0 0 0 Z " fill="#A8DEDA" transform="translate(402,61)"/>
<path d="M0 0 C2.475 0.99 2.475 0.99 5 2 C4.67 2.66 4.34 3.32 4 4 C3.01 3.67 2.02 3.34 1 3 C1 11.25 1 19.5 1 28 C2.32 28.33 3.64 28.66 5 29 C5 29.66 5 30.32 5 31 C4.01 31 3.02 31 2 31 C2.33 38.92 2.66 46.84 3 55 C3.66 55.33 4.32 55.66 5 56 C5 56.66 5 57.32 5 58 C4.01 58 3.02 58 2 58 C2 66.25 2 74.5 2 83 C3.32 83 4.64 83 6 83 C6 83.99 6 84.98 6 86 C4.68 85.67 3.36 85.34 2 85 C2 93.25 2 101.5 2 110 C3.32 110.33 4.64 110.66 6 111 C6 111.66 6 112.32 6 113 C5.01 113 4.02 113 3 113 C3 120.92 3 128.84 3 137 C13.73155135 142.07696622 24.7697469 146.34226469 35.8125 150.6875 C37.94415982 151.52863623 40.07575044 152.36994785 42.20727539 153.21142578 C58.68148684 159.71070409 75.16826056 166.17846526 91.66918945 172.60961914 C100.46373056 176.03878782 109.2479794 179.48889156 118.00390625 183.015625 C120.28711874 183.93117449 122.57056133 184.84614808 124.85403442 185.76104736 C126.93306763 186.59805344 129.00741387 187.44596006 131.08178711 188.29443359 C132.32513776 188.79319278 133.5686956 189.29143593 134.8125 189.7890625 C135.87082031 190.21912598 136.92914063 190.64918945 138.01953125 191.09228516 C141.16888918 192.05143594 143.72744189 192.17304446 147 192 C146.67 193.32 146.34 194.64 146 196 C138.35179989 193.873918 131.034848 191.1578635 123.671875 188.203125 C122.50164795 187.7375116 121.3314209 187.27189819 120.12573242 186.79217529 C117.62663404 185.79723114 115.12817688 184.80084235 112.6307373 183.80175781 C108.70373799 182.23082159 104.77444572 180.6656804 100.84472656 179.1015625 C96.89757471 177.53022476 92.95054284 175.95859119 89.0043335 174.3848877 C79.34041018 170.53105751 69.66872722 166.6973837 59.98925781 162.88278198 C57.76588297 162.00626154 55.54302653 161.1284388 53.3203125 160.25024414 C46.23247548 157.45083019 39.14073162 154.66186103 32.04193115 151.89035034 C28.47159886 150.4957579 24.90278254 149.09731054 21.33410645 147.69848633 C19.62677764 147.03052387 17.91870001 146.3644719 16.20983887 145.70043945 C13.86199159 144.78804124 11.51670565 143.86933628 9.171875 142.94921875 C8.4718335 142.67913498 7.77179199 142.40905121 7.05053711 142.13078308 C4.21644932 141.012467 2.17884435 140.17884435 0 138 C-0.21767289 135.59807212 -0.31137619 133.30797355 -0.31884766 130.90307617 C-0.32888762 130.16765185 -0.33892757 129.43222754 -0.34927177 128.67451763 C-0.38037479 126.2140094 -0.39725407 123.75361307 -0.4140625 121.29296875 C-0.43291716 119.55509573 -0.45258626 117.81723137 -0.47302246 116.07937622 C-0.52518671 111.41354127 -0.56469432 106.74767927 -0.60129547 102.08169937 C-0.63277069 98.23873965 -0.67103243 94.39585986 -0.70925713 90.5529623 C-0.93445133 67.80686503 -1.09343538 45.0597287 -1.125 22.3125 C-1.12767883 21.19781342 -1.13035767 20.08312683 -1.13311768 18.93466187 C-1.13879946 15.8691656 -1.13737352 12.80377723 -1.1328125 9.73828125 C-1.13478638 8.85077179 -1.13676025 7.96326233 -1.13879395 7.04885864 C-1.11558679 1.11558679 -1.11558679 1.11558679 0 0 Z " fill="#231E1B" transform="translate(89,205)"/>
<path d="M0 0 C3.60777296 3.1472062 4.77839511 4.67037064 5.5625 9.375 C4.63142025 15.37529171 2.69437974 19.45623179 -1.8125 23.5625 C-5.79464942 25.35837131 -7.84177804 25.25531229 -12 24 C-14.91762792 21.0009499 -15.4317178 18.75348745 -15.4375 14.625 C-15.26754655 8.55523383 -13.36926311 5.45096184 -9.1875 1.125 C-5.86218677 -0.58516109 -3.67824022 -0.58077477 0 0 Z " fill="#3FB9B8" transform="translate(466,243)"/>
<path d="M0 0 C1.77528076 0.62841797 1.77528076 0.62841797 3.58642578 1.26953125 C4.2216214 1.4914917 4.85681702 1.71345215 5.51126099 1.94213867 C7.52127421 2.64674386 9.52643963 3.36413241 11.53173828 4.08203125 C12.90122901 4.56465688 14.27101821 5.04643645 15.64111328 5.52734375 C18.98316286 6.70247465 22.32099236 7.88910709 25.65673828 9.08203125 C25.65673828 9.41203125 25.65673828 9.74203125 25.65673828 10.08203125 C16.08673828 10.08203125 6.51673828 10.08203125 -3.34326172 10.08203125 C-4.00326172 12.39203125 -4.66326172 14.70203125 -5.34326172 17.08203125 C-9.10849752 16.82531063 -10.90165683 16.48877259 -13.71826172 13.89453125 C-15.65864624 10.53617343 -15.97952895 8.89963463 -15.34326172 5.08203125 C-11.08976266 -1.29821734 -7.34019805 -2.01541877 0 0 Z " fill="#F1F5F6" transform="translate(82.34326171875,148.91796875)"/>
<path d="M0 0 C2.69990662 1.79993774 4.5418865 3.083773 6 6 C6.39089831 9.51808483 6.24762163 11.51601227 4.625 14.6875 C0.77408201 18.07997537 -3.0410523 18.76026307 -8 20 C-8 13.73 -8 7.46 -8 1 C-5.14675563 -0.42662219 -3.16545451 -0.31033868 0 0 Z " fill="#ECF1F2" transform="translate(431,148)"/>
<path d="M0 0 C2.475 0.99 2.475 0.99 5 2 C4.67 2.66 4.34 3.32 4 4 C3.01 3.67 2.02 3.34 1 3 C1 11.25 1 19.5 1 28 C2.32 28.33 3.64 28.66 5 29 C5 29.66 5 30.32 5 31 C4.01 31 3.02 31 2 31 C2.33 38.92 2.66 46.84 3 55 C3.66 55.33 4.32 55.66 5 56 C5 56.66 5 57.32 5 58 C4.01 58 3.02 58 2 58 C2 65.92 2 73.84 2 82 C1.67 82 1.34 82 1 82 C0.96241577 80.88757935 0.96241577 80.88757935 0.92407227 79.75268555 C0.80813868 76.39744672 0.68540015 73.04249056 0.5625 69.6875 C0.52318359 68.52025391 0.48386719 67.35300781 0.44335938 66.15039062 C0.40146484 65.03212891 0.35957031 63.91386719 0.31640625 62.76171875 C0.27974854 61.73006592 0.24309082 60.69841309 0.20532227 59.63549805 C0.09838758 56.89251742 0.09838758 56.89251742 -1 54 C-1.09273907 52.27196869 -1.12791707 50.54057602 -1.12939453 48.81005859 C-1.13254669 47.75241302 -1.13569885 46.69476746 -1.13894653 45.60507202 C-1.1369223 44.46438263 -1.13489807 43.32369324 -1.1328125 42.1484375 C-1.13376923 40.97866364 -1.13472595 39.80888977 -1.13571167 38.60366821 C-1.13639245 36.13063503 -1.13454525 33.65760006 -1.13037109 31.18457031 C-1.12501188 27.38342311 -1.13032449 23.58239356 -1.13671875 19.78125 C-1.13605814 17.38281224 -1.13477733 14.98437455 -1.1328125 12.5859375 C-1.13483673 11.44119965 -1.13686096 10.29646179 -1.13894653 9.11703491 C-1.13579437 8.06569366 -1.13264221 7.01435242 -1.12939453 5.93115234 C-1.12859894 5.00088226 -1.12780334 4.07061218 -1.12698364 3.1121521 C-1 1 -1 1 0 0 Z " fill="#454545" transform="translate(89,205)"/>
<path d="M0 0 C0.33 0 0.66 0 1 0 C1.33 8.25 1.66 16.5 2 25 C3.32 25.33 4.64 25.66 6 26 C6 26.99 6 27.98 6 29 C4.68 28.67 3.36 28.34 2 28 C2 36.25 2 44.5 2 53 C3.32 53.33 4.64 53.66 6 54 C6 54.66 6 55.32 6 56 C5.01 56 4.02 56 3 56 C3 63.92 3 71.84 3 80 C3.99 80.33 4.98 80.66 6 81 C6 81.66 6 82.32 6 83 C1.125 82.125 1.125 82.125 0 81 C-0.09504251 78.47458998 -0.12557158 75.97662874 -0.11352539 73.45092773 C-0.11367142 72.66074249 -0.11381744 71.87055725 -0.1139679 71.056427 C-0.11326857 68.43212178 -0.10547527 65.80788664 -0.09765625 63.18359375 C-0.09579214 61.36898335 -0.0943682 59.55437244 -0.09336853 57.73976135 C-0.08954279 52.9540977 -0.07971204 48.1684642 -0.06866455 43.3828125 C-0.05845163 38.50325936 -0.05387117 33.62370136 -0.04882812 28.74414062 C-0.03808982 19.16274714 -0.02101273 9.58137607 0 0 Z " fill="#070707" transform="translate(89,262)"/>
<path d="M0 0 C0 0.33 0 0.66 0 1 C2.31 1.33 4.62 1.66 7 2 C7 2.33 7 2.66 7 3 C-33.25230814 3.20638953 -33.25230814 3.20638953 -49 2 C-49 1.67 -49 1.34 -49 1 C-43.4682174 0.8561086 -37.93639822 0.71374793 -32.40454102 0.57275391 C-30.52594969 0.52466352 -28.64736868 0.47616804 -26.76879883 0.42724609 C-24.05552801 0.35665928 -21.34222239 0.28757001 -18.62890625 0.21875 C-17.80040665 0.19687622 -16.97190704 0.17500244 -16.11830139 0.15246582 C-10.74374448 0.01798775 -5.37626369 -0.01885581 0 0 Z " fill="#B3C8CC" transform="translate(239,165)"/>
<path d="M0 0 C4.61205483 1.15301371 8.41475373 2.71770726 12.66796875 4.88574219 C16.99862185 6.9549529 21.50525996 8.57609681 26 10.25 C26.96550781 10.61351562 27.93101563 10.97703125 28.92578125 11.3515625 C31.28244018 12.23822626 33.64049524 13.12094372 36 14 C36 14.66 36 15.32 36 16 C27.55966227 13.69842556 19.488484 10.55104064 11.375 7.3125 C10.07176467 6.79584522 8.76838015 6.27956658 7.46484375 5.76367188 C4.30841474 4.51279075 1.15353412 3.25815732 -2 2 C-1.34 1.34 -0.68 0.68 0 0 Z " fill="#2F2823" transform="translate(95,344)"/>
<path d="M0 0 C0.33 0 0.66 0 1 0 C1.33 8.25 1.66 16.5 2 25 C3.32 25.33 4.64 25.66 6 26 C6 26.99 6 27.98 6 29 C4.68 28.67 3.36 28.34 2 28 C2 35.26 2 42.52 2 50 C1.67 50 1.34 50 1 50 C0.09033808 33.32367126 -0.12538412 16.69923597 0 0 Z " fill="#1D1D1D" transform="translate(89,262)"/>
<path d="M0 0 C0.66 0.33 1.32 0.66 2 1 C0.73594025 4.79217926 -0.39545929 5.07263909 -3.83984375 6.953125 C-5.3103418 7.7575 -5.3103418 7.7575 -6.81054688 8.578125 C-7.84244141 9.12984375 -8.87433594 9.6815625 -9.9375 10.25 C-10.96552734 10.8171875 -11.99355469 11.384375 -13.05273438 11.96875 C-18.75213699 15.05234012 -18.75213699 15.05234012 -21 16 C-21.66 15.67 -22.32 15.34 -23 15 C-22.51644043 14.68772461 -22.03288086 14.37544922 -21.53466797 14.05371094 C-19.31448783 12.61959027 -17.09474126 11.18479986 -14.875 9.75 C-14.11445313 9.25886719 -13.35390625 8.76773438 -12.5703125 8.26171875 C-8.35881231 5.53876604 -4.16461985 2.79415389 0 0 Z " fill="#A2D7D4" transform="translate(277,150)"/>
<path d="M0 0 C5.7681685 0.82402407 10.9838624 3.32434675 16.31835938 5.56054688 C20.72181847 7.34035503 24.15669536 8.42757906 29 8 C28.67 9.32 28.34 10.64 28 12 C21.44770865 10.30960543 15.19754062 7.98025168 8.9375 5.4375 C8.1751001 5.13255615 7.4127002 4.8276123 6.62719727 4.51342773 C1.12049388 2.24098776 1.12049388 2.24098776 0 0 Z " fill="#1B1917" transform="translate(207,389)"/>
<path d="M0 0 C0.33 0 0.66 0 1 0 C1.33 8.58 1.66 17.16 2 26 C3.32 26.33 4.64 26.66 6 27 C6 27.66 6 28.32 6 29 C5.01 29 4.02 29 3 29 C2.67 31.97 2.34 34.94 2 38 C1.67 38 1.34 38 1 38 C-0.06346444 29.78242924 -0.11790325 21.65139345 -0.0625 13.375 C-0.05798828 12.08464844 -0.05347656 10.79429687 -0.04882812 9.46484375 C-0.03714295 6.30984625 -0.02076044 3.15494863 0 0 Z " fill="#0E0E0E" transform="translate(89,289)"/>
<path d="M0 0 C2.475 0.99 2.475 0.99 5 2 C4.67 2.66 4.34 3.32 4 4 C3.01 3.67 2.02 3.34 1 3 C1 11.25 1 19.5 1 28 C2.32 28.33 3.64 28.66 5 29 C4.67 29.66 4.34 30.32 4 31 C2.68 30.34 1.36 29.68 0 29 C0 19.43 0 9.86 0 0 Z " fill="#080808" transform="translate(89,205)"/>
<path d="M0 0 C1.32 0.33 2.64 0.66 4 1 C4 2.98 4 4.96 4 7 C2.68 6.67 1.36 6.34 0 6 C0 4.02 0 2.04 0 0 Z " fill="#6E6E6E" transform="translate(78,199)"/>
<path d="M0 0 C5.02265357 1.18180084 8.0949151 2.44992282 12 6 C6.94744036 5.36843005 2.70406799 3.86540627 -2 2 C-1.34 1.34 -0.68 0.68 0 0 Z " fill="#1E1D1D" transform="translate(95,344)"/>
<path d="M0 0 C6.93 0.495 6.93 0.495 14 1 C12.68 1.33 11.36 1.66 10 2 C10 2.66 10 3.32 10 4 C6.7 3.01 3.4 2.02 0 1 C0 0.67 0 0.34 0 0 Z " fill="#BBCDD0" transform="translate(85,163)"/>
<path d="M0 0 C1.32 0.33 2.64 0.66 4 1 C4 2.65 4 4.3 4 6 C3.01 6 2.02 6 1 6 C0 5 0 5 -0.0625 2.4375 C-0.041875 1.633125 -0.02125 0.82875 0 0 Z " fill="#666666" transform="translate(83,338)"/>
<path d="M0 0 C1.485 0.99 1.485 0.99 3 2 C3.1875 4.625 3.1875 4.625 3 7 C1.68 6.67 0.36 6.34 -1 6 C-1.042721 4.33388095 -1.04063832 2.66617115 -1 1 C-0.67 0.67 -0.34 0.34 0 0 Z " fill="#666666" transform="translate(84,310)"/>
<path d="M0 0 C1.32 0.33 2.64 0.66 4 1 C4 2.98 4 4.96 4 7 C2.68 6.34 1.36 5.68 0 5 C0 3.35 0 1.7 0 0 Z " fill="#626262" transform="translate(78,254)"/>
<path d="M0 0 C1.485 0.99 1.485 0.99 3 2 C3.1875 4.625 3.1875 4.625 3 7 C1.68 6.67 0.36 6.34 -1 6 C-1.042721 4.33388095 -1.04063832 2.66617115 -1 1 C-0.67 0.67 -0.34 0.34 0 0 Z " fill="#636363" transform="translate(79,226)"/>
<path d="M0 0 C4.29 0.33 8.58 0.66 13 1 C11.68 1.33 10.36 1.66 9 2 C9 2.66 9 3.32 9 4 C6.03 3.01 3.06 2.02 0 1 C0 0.67 0 0.34 0 0 Z " fill="#C6E3E3" transform="translate(122,176)"/>
<path d="M0 0 C0.99 0 1.98 0 3 0 C3 2.31 3 4.62 3 7 C2.01 6.67 1.02 6.34 0 6 C0 4.02 0 2.04 0 0 Z " fill="#5B5B5B" transform="translate(83,283)"/>
<path d="M0 0 C0.66 0 1.32 0 2 0 C2 2.31 2 4.62 2 7 C0.68 6.34 -0.64 5.68 -2 5 C-1.34 3.35 -0.68 1.7 0 0 Z " fill="#5A5A5A" transform="translate(80,281)"/>
<path d="M0 0 C0.99 0.33 1.98 0.66 3 1 C3 2.98 3 4.96 3 7 C2.01 6.67 1.02 6.34 0 6 C0 4.02 0 2.04 0 0 Z " fill="#494949" transform="translate(83,228)"/>
<path d="M0 0 C0.99 0.33 1.98 0.66 3 1 C3 2.98 3 4.96 3 7 C2.01 6.67 1.02 6.34 0 6 C0 4.02 0 2.04 0 0 Z " fill="#474747" transform="translate(83,201)"/>
</svg>
